<?xml version="1.0" standalone="no"?>
<!DOCTYPE svg PUBLIC "-//W3C//DTD SVG 20010904//EN"
 "http://www.w3.org/TR/2001/REC-SVG-20010904/DTD/svg10.dtd">
<svg version="1.0" xmlns="http://www.w3.org/2000/svg"
 width="112.000000pt" height="105.000000pt" viewBox="0 0 112.000000 105.000000"
 preserveAspectRatio="xMidYMid meet">
<metadata>
Created by potrace 1.16, written by Peter Selinger 2001-2019
</metadata>
<g transform="translate(0.000000,105.000000) scale(0.100000,-0.100000)"
fill="#0E8784" stroke="none">
<path d="M726 842 c-3 -18 -9 -45 -12 -61 -10 -52 -27 -57 -79 -21 -49 34 -53
41 -30 60 27 23 16 30 -47 30 -65 0 -102 -19 -91 -46 7 -18 -17 -18 -44 1 -19
13 -24 12 -67 -26 -25 -22 -46 -47 -46 -54 0 -18 -55 -59 -107 -80 -34 -14
-43 -23 -50 -53 -8 -32 -5 -47 24 -107 19 -40 33 -85 33 -107 0 -49 18 -50 71
-5 42 36 91 55 168 64 57 7 88 -7 105 -48 12 -29 12 -29 31 -9 22 24 35 26 35
3 0 -9 11 -36 25 -60 l26 -43 68 0 c66 0 69 1 81 29 6 16 34 54 61 83 38 41
49 60 49 86 0 41 -63 167 -101 203 -18 17 -29 37 -29 54 0 33 -18 68 -31 60
-5 -4 -9 4 -9 17 0 14 -6 33 -14 43 -13 18 -14 17 -20 -13z"/>
<path d="M710 231 c0 -11 58 -61 70 -61 10 0 20 25 20 51 0 16 -7 19 -45 19
-25 0 -45 -4 -45 -9z"/>
</g>
</svg>
