<?xml version="1.0" standalone="no"?>
<!DOCTYPE svg PUBLIC "-//W3C//DTD SVG 20010904//EN"
 "http://www.w3.org/TR/2001/REC-SVG-20010904/DTD/svg10.dtd">
<svg version="1.0" xmlns="http://www.w3.org/2000/svg"
 width="118.000000pt" height="102.000000pt" viewBox="0 0 118.000000 102.000000"
 preserveAspectRatio="xMidYMid meet">
<metadata>
Created by potrace 1.16, written by Peter Selinger 2001-2019
</metadata>
<g transform="translate(0.000000,102.000000) scale(0.100000,-0.100000)"
fill="#0E8784" stroke="none">
<path d="M466 908 c-20 -29 -20 -41 2 -60 12 -12 28 -14 57 -9 39 6 40 8 43
49 l3 42 -45 0 c-35 0 -48 -5 -60 -22z"/>
<path d="M320 825 l-24 -26 49 -42 c27 -23 49 -42 50 -41 0 0 16 6 34 12 l35
12 -54 55 c-30 30 -57 55 -60 55 -4 0 -17 -11 -30 -25z"/>
<path d="M147 716 l-57 -64 17 -71 17 -71 -24 -25 -24 -25 22 -68 22 -67 175
-88 176 -87 20 35 c12 19 23 35 26 35 3 0 25 -12 49 -27 31 -20 50 -42 70 -85
l28 -58 38 60 38 60 60 0 c60 0 60 0 62 30 0 17 1 35 2 40 1 6 -21 21 -49 34
l-50 22 43 29 c58 38 58 73 0 132 l-42 43 -28 -27 -28 -27 -29 28 c-29 28 -30
28 -55 10 -29 -22 -32 -36 -10 -54 32 -28 35 -48 14 -90 -22 -44 -32 -44 -55
-1 -9 18 -32 36 -65 50 -27 12 -50 26 -50 32 0 14 49 110 71 138 11 13 19 27
19 31 0 4 -22 19 -48 33 l-49 26 -28 -29 -29 -30 -96 95 -97 96 -56 -65z"/>
<path d="M589 763 c-28 -3 -38 -10 -43 -26 -6 -25 26 -56 59 -57 23 0 65 -56
65 -86 0 -10 8 -24 19 -31 22 -14 57 6 70 41 24 63 25 61 -47 115 -38 28 -73
50 -78 49 -5 -1 -25 -3 -45 -5z"/>
<path d="M935 310 c-4 -6 7 -10 24 -10 17 0 31 5 31 10 0 6 -11 10 -24 10 -14
0 -28 -4 -31 -10z"/>
<path d="M905 110 c-8 -13 20 -24 41 -16 8 3 12 10 9 16 -8 13 -42 13 -50 0z"/>
</g>
</svg>
