<?xml version="1.0" standalone="no"?>
<!DOCTYPE svg PUBLIC "-//W3C//DTD SVG 20010904//EN"
 "http://www.w3.org/TR/2001/REC-SVG-20010904/DTD/svg10.dtd">
<svg version="1.0" xmlns="http://www.w3.org/2000/svg"
 width="133.000000pt" height="107.000000pt" viewBox="0 0 133.000000 107.000000"
 preserveAspectRatio="xMidYMid meet">
<metadata>
Created by potrace 1.16, written by Peter Selinger 2001-2019
</metadata>
<g transform="translate(0.000000,107.000000) scale(0.100000,-0.100000)"
fill="#0E8784" stroke="none">
<path d="M511 933 c-12 -10 -29 -34 -39 -53 -13 -28 -23 -35 -44 -35 -33 1
-35 -6 -7 -31 16 -14 19 -26 14 -50 -4 -26 -2 -33 12 -36 16 -3 16 -5 -4 -23
-13 -11 -23 -26 -23 -34 0 -12 3 -12 12 -3 18 18 28 15 28 -9 0 -18 4 -20 31
-14 29 6 30 6 20 -13 -18 -35 -13 -42 32 -42 51 0 73 -19 88 -76 10 -33 8 -40
-7 -51 -10 -8 -32 -12 -49 -11 -22 2 -30 -2 -33 -16 -2 -10 3 -23 12 -28 20
-11 21 -32 1 -48 -28 -23 -18 -49 27 -67 l42 -17 -30 -8 c-16 -4 -50 -28 -76
-53 -41 -40 -44 -45 -24 -45 13 0 49 9 82 21 34 12 105 24 169 29 126 10 185
24 185 45 0 8 -7 15 -15 15 -23 0 -18 26 9 43 28 18 36 44 25 75 -7 17 -16 22
-44 22 -25 0 -37 5 -41 18 -14 46 -36 82 -83 137 -29 33 -54 70 -58 83 -3 12
-18 29 -34 38 -16 8 -29 19 -29 24 0 6 14 35 31 65 17 30 28 59 24 65 -3 5
-35 10 -71 10 -35 0 -64 4 -64 8 0 5 9 17 21 28 11 10 25 27 30 36 9 16 4 18
-45 18 -36 0 -61 -6 -75 -17z"/>
<path d="M398 924 c-19 -10 -28 -23 -28 -39 0 -14 -4 -25 -10 -25 -5 0 -10 -5
-10 -11 0 -14 58 28 71 52 16 30 7 39 -23 23z"/>
<path d="M354 605 c-75 -45 -65 -69 32 -80 48 -5 63 -3 73 9 24 29 -9 96 -47
96 -9 0 -36 -11 -58 -25z"/>
</g>
</svg>
